<svg width="393" height="769" viewBox="0 0 393 769" fill="none" xmlns="http://www.w3.org/2000/svg">
<path d="M443.992 95.8811C477.477 100.182 484.591 127.543 483.963 140.685L483.963 769H-89.9629L-89.9629 140.685C-90.5914 127.543 -83.4769 100.182 -49.9916 95.8811C-8.13501 90.5046 -9.26633 71.6867 -2.85587 56.4533C3.5546 41.2198 13.7359 25.9865 49.5591 38.0836C85.3824 50.1807 120.451 54.2131 147.225 25.5384C168.643 2.59863 189.377 0 197 0C204.623 0 225.357 2.59863 246.775 25.5384C273.549 54.2131 308.618 50.1807 344.441 38.0836C380.264 25.9865 390.445 41.2198 396.856 56.4533C403.266 71.6867 402.135 90.5046 443.992 95.8811Z" fill="#1D1534"/>
<path d="M443.992 95.8811C477.477 100.182 484.591 127.543 483.963 140.685L483.963 769H-89.9629L-89.9629 140.685C-90.5914 127.543 -83.4769 100.182 -49.9916 95.8811C-8.13501 90.5046 -9.26633 71.6867 -2.85587 56.4533C3.5546 41.2198 13.7359 25.9865 49.5591 38.0836C85.3824 50.1807 120.451 54.2131 147.225 25.5384C168.643 2.59863 189.377 0 197 0C204.623 0 225.357 2.59863 246.775 25.5384C273.549 54.2131 308.618 50.1807 344.441 38.0836C380.264 25.9865 390.445 41.2198 396.856 56.4533C403.266 71.6867 402.135 90.5046 443.992 95.8811Z" fill="url(#paint0_linear_3280_3488)"/>
<defs>
<linearGradient id="paint0_linear_3280_3488" x1="484" y1="738.316" x2="-420.523" y2="493.808" gradientUnits="userSpaceOnUse">
<stop stop-color="#F7F651"/>
<stop offset="0.353125" stop-color="#FA793F"/>
<stop offset="1" stop-color="#ED374D"/>
</linearGradient>
</defs>
</svg>
